<?xml version="1.0" standalone="no"?>
<!DOCTYPE svg PUBLIC "-//W3C//DTD SVG 20010904//EN"
 "http://www.w3.org/TR/2001/REC-SVG-20010904/DTD/svg10.dtd">
<svg version="1.0" xmlns="http://www.w3.org/2000/svg"
 width="3332.000000pt" height="1094.000000pt" viewBox="0 0 3332.000000 1094.000000"
 preserveAspectRatio="xMidYMid meet">

<g transform="translate(0.000000,1094.000000) scale(0.100000,-0.100000)"
fill="#000000" stroke="none">
<path d="M7030 10918 c-5 -13 -26 -111 -46 -218 -20 -107 -49 -260 -64 -340
-34 -175 -96 -500 -144 -747 -19 -100 -38 -188 -42 -194 -4 -7 -58 91 -131
241 -68 140 -131 262 -140 272 -14 16 -35 18 -163 18 -153 0 -170 -4 -170 -45
0 -40 18 -45 152 -45 l129 0 157 -317 c125 -253 161 -319 178 -321 44 -6 25
-88 264 1158 38 201 75 391 81 423 l12 57 1123 0 c1023 0 1124 1 1139 16 9 9
15 26 13 38 l-3 21 -1168 3 -1167 2 -10 -22z"/>
<path d="M15070 10911 l0 -28 -106 -12 c-176 -20 -279 -71 -329 -163 -55 -100
-34 -230 47 -292 50 -37 86 -48 163 -49 81 0 140 21 198 73 39 34 44 32 49
-25 3 -30 4 -30 67 -33 l64 -3 -6 68 c-4 37 -7 164 -7 281 l0 212 -70 0 -70 0
0 -29z m0 -221 c0 -97 -10 -128 -52 -166 -79 -72 -204 -72 -251 0 -46 70 -18
170 57 210 51 26 128 44 194 45 l52 1 0 -90z"/>
<path d="M19002 10398 l3 -543 32 -68 c57 -120 160 -206 284 -237 31 -7 721
-10 2388 -8 2220 3 2344 4 2355 21 8 12 8 22 0 35 -11 16 -138 17 -2370 22
l-2359 5 -48 22 c-101 47 -176 144 -197 253 -6 31 -10 259 -10 546 l0 494 -40
0 -41 0 3 -542z"/>
<path d="M22736 10888 c-25 -51 -26 -57 -26 -253 0 -188 -1 -203 -22 -245 -13
-24 -36 -53 -51 -64 -28 -21 -33 -21 -1400 -23 l-1372 -3 -17 -21 c-22 -26
-22 -33 -2 -53 14 -14 152 -16 1368 -16 1486 0 1412 -3 1489 61 75 62 81 86
87 334 6 249 10 266 85 311 l40 24 -77 0 -76 0 -26 -52z"/>
<path d="M29525 10928 c-11 -6 -21 -12 -23 -13 -1 -1 3 -16 9 -33 7 -20 18
-32 29 -32 21 0 112 60 118 78 5 16 -105 16 -133 0z"/>
<path d="M30292 10862 c-9 -6 -12 -38 -10 -123 3 -110 4 -114 26 -117 44 -7
52 12 52 122 0 103 -7 126 -39 126 -9 0 -22 -4 -29 -8z"/>
<path d="M399 10755 c-3 -2 -3 -20 -1 -40 l4 -35 1883 0 1883 0 4 35 c2 20 2
38 -1 40 -6 6 -3766 6 -3772 0z"/>
<path d="M25582 10488 c-17 -17 -15 -42 6 -61 17 -16 249 -17 3092 -19 l3073
-3 -114 -38 c-373 -125 -707 -367 -940 -682 -162 -219 -250 -405 -323 -688
-23 -87 -45 -159 -51 -159 -5 0 -18 -4 -27 -9 -16 -8 -18 -25 -18 -117 0 -71
4 -112 12 -120 9 -9 -1 -12 -46 -12 -69 0 -96 -12 -96 -45 0 -33 27 -45 99
-45 l61 0 0 -79 c0 -58 -4 -82 -15 -91 -11 -9 -15 -32 -15 -79 0 -79 -36 -232
-83 -357 -207 -540 -659 -958 -1212 -1119 -644 -187 -1342 -7 -1821 469 -221
221 -379 492 -473 811 -25 86 -59 286 -63 375 l-3 65 98 5 c97 5 116 13 117
47 0 33 -31 43 -130 43 -85 0 -101 -3 -112 -19 -7 -10 -22 -20 -33 -22 -26 -5
-31 -67 -16 -195 59 -501 283 -936 647 -1255 174 -153 390 -282 599 -360 50
-18 94 -36 99 -41 6 -4 -506 -8 -1136 -8 -1029 0 -1148 -2 -1162 -16 -19 -19
-20 -36 -4 -52 9 -9 543 -12 2340 -12 l2328 0 22 -25 c28 -32 53 -32 74 0 9
14 22 25 28 24 6 -1 669 -1 1474 0 l1462 1 0 40 0 40 -1477 2 -1478 3 -3 45
c-4 54 -17 72 -51 68 -24 -3 -26 -8 -31 -58 l-5 -55 -620 -3 c-340 -1 -615 2
-610 6 6 5 51 23 100 41 504 185 926 600 1122 1103 87 224 118 387 132 684 13
273 37 420 97 599 231 688 845 1182 1560 1256 434 44 859 -64 1237 -315 l27
-18 0 51 c0 51 0 51 -52 85 -115 73 -350 178 -488 218 -40 12 -12 13 248 16
l292 2 0 45 0 45 -3863 0 c-2991 0 -3866 -3 -3875 -12z"/>
<path d="M8492 10342 c-52 -30 -61 -39 -56 -56 11 -37 22 -39 67 -13 24 15 47
23 51 20 3 -3 6 -125 6 -270 l0 -264 38 3 37 3 0 305 0 305 -40 2 c-30 1 -56
-8 -103 -35z"/>
<path d="M8935 10368 c-5 -18 -35 -239 -35 -260 0 -15 10 -18 65 -18 111 0
179 -41 191 -115 7 -48 -8 -85 -50 -124 -33 -31 -111 -38 -179 -17 l-48 14
-10 -26 c-13 -34 4 -47 79 -63 171 -35 303 68 290 226 -8 98 -90 165 -201 165
-31 0 -58 4 -61 8 -3 5 0 40 7 78 l13 69 117 3 117 3 0 34 0 35 -145 0 c-108
0 -147 -3 -150 -12z"/>
<path d="M30287 10353 c-13 -12 -8 -218 5 -231 18 -18 46 -14 58 7 14 28 13
204 -2 219 -13 13 -50 16 -61 5z"/>
<path d="M8025 10258 c-3 -7 -6 -58 -7 -113 l-3 -100 -108 -3 c-105 -3 -108
-3 -105 -25 3 -21 9 -22 108 -27 l105 -5 5 -110 c5 -109 5 -110 30 -110 l25 0
3 113 3 112 104 0 c105 0 105 0 105 25 0 24 -1 24 -102 27 l-103 3 -5 110 c-5
105 -6 110 -28 113 -12 2 -24 -3 -27 -10z"/>
<path d="M7425 10215 c-22 -8 -41 -15 -42 -15 -6 0 -2 -36 5 -48 7 -10 16 -9
45 3 77 32 150 15 173 -41 21 -51 13 -64 -39 -64 -60 0 -140 -25 -176 -56 -90
-75 -49 -223 66 -240 47 -7 121 14 143 42 18 20 28 17 32 -8 2 -19 9 -23 36
-23 l34 0 -1 160 c-2 210 -11 241 -81 284 -42 25 -133 28 -195 6z m193 -265
c6 -80 -40 -134 -114 -134 -47 0 -78 32 -77 79 1 38 14 59 47 77 27 15 83 27
116 25 22 -2 25 -7 28 -47z"/>
<path d="M10943 8738 l-1203 -1201 0 -2739 c0 -1869 3 -2745 10 -2759 11 -19
52 -19 2763 -19 l2752 0 1203 1202 1202 1203 0 2745 c0 2123 -3 2749 -12 2758
-9 9 -637 12 -2763 12 l-2750 0 -1202 -1202z m6567 1114 c0 -4 -512 -519
-1138 -1145 l-1137 -1137 -2668 2 -2668 3 1106 1105 c608 608 1108 1106 1110
1108 2 2 13 -1 24 -8 31 -16 61 3 61 39 0 15 3 31 7 34 9 10 5303 9 5303 -1z
m70 -2722 l0 -2650 -29 0 c-40 0 -58 -24 -44 -60 10 -27 -6 -44 -1096 -1134
-608 -608 -1109 -1106 -1114 -1106 -4 0 -7 1198 -7 2662 l0 2663 1137 1137
c626 626 1141 1138 1145 1138 5 0 8 -1192 8 -2650z m-5460 265 c0 -81 1 -86
25 -97 43 -19 55 2 55 98 l0 84 1505 0 1505 0 -2 -1497 -3 -1498 -80 -3 c-88
-3 -107 -13 -103 -51 3 -25 5 -26 93 -31 l90 -5 3 -1142 2 -1143 -2661 0
-2661 0 -5 21 c-3 11 -16 25 -29 30 l-24 9 0 2655 0 2655 1145 0 1145 0 0 -85z"/>
<path d="M12138 9519 c-15 -8 -18 -25 -18 -112 0 -109 7 -127 46 -127 30 0 34
16 34 130 0 88 -2 100 -19 110 -23 12 -22 12 -43 -1z"/>
<path d="M12131 9016 c-8 -9 -11 -49 -9 -116 3 -85 6 -105 21 -114 12 -8 22
-8 35 0 14 9 17 29 20 114 3 106 -4 130 -38 130 -10 0 -23 -6 -29 -14z"/>
<path d="M12126 8515 c-3 -9 -6 -61 -6 -115 0 -89 2 -100 20 -110 14 -8 26 -8
40 0 19 10 20 19 18 123 l-3 112 -31 3 c-22 2 -33 -2 -38 -13z"/>
<path d="M12132 8028 c-16 -16 -16 -210 0 -226 17 -17 55 -15 62 4 3 9 6 59 6
113 0 99 -7 121 -40 121 -9 0 -21 -5 -28 -12z"/>
<path d="M15526 4464 c-19 -19 -20 -25 -3 -47 11 -15 27 -17 122 -15 106 3
110 4 113 26 6 44 -13 52 -119 52 -75 0 -101 -4 -113 -16z"/>
<path d="M16022 4468 c-7 -7 -12 -19 -12 -28 0 -33 22 -40 125 -40 65 0 105 4
113 12 18 18 14 46 -7 58 -28 14 -204 13 -219 -2z"/>
<path d="M16520 4466 c-6 -8 -10 -25 -8 -38 3 -22 7 -23 113 -26 92 -2 112 0
122 14 12 17 7 44 -11 56 -6 4 -54 8 -107 8 -72 0 -100 -4 -109 -14z"/>
<path d="M17008 4455 c-8 -19 -8 -28 2 -40 11 -13 33 -15 124 -13 107 3 111 4
114 26 7 44 -12 52 -124 52 -101 0 -105 -1 -116 -25z"/>
<path d="M12138 7039 c-15 -8 -18 -25 -18 -113 0 -112 8 -131 52 -124 22 3 23
7 26 113 2 95 0 111 -15 122 -20 15 -23 15 -45 2z"/>
<path d="M12131 6536 c-8 -9 -11 -49 -9 -116 3 -85 6 -105 21 -114 12 -8 22
-8 35 0 14 9 17 29 20 114 3 106 -4 130 -38 130 -10 0 -23 -6 -29 -14z"/>
<path d="M12132 6038 c-8 -8 -12 -48 -12 -115 0 -92 2 -103 20 -113 14 -8 26
-8 40 0 18 10 20 21 20 110 0 54 -3 105 -6 114 -7 19 -45 21 -62 4z"/>
<path d="M12138 5549 c-15 -8 -18 -25 -18 -113 0 -112 8 -131 52 -124 22 3 23
7 26 113 2 95 0 111 -15 122 -20 15 -23 15 -45 2z"/>
<path d="M12131 5046 c-8 -9 -11 -49 -9 -116 3 -85 6 -105 21 -114 12 -8 22
-8 35 0 14 9 17 29 20 114 3 106 -4 130 -38 130 -10 0 -23 -6 -29 -14z"/>
<path d="M12127 4554 c-4 -4 -7 -27 -7 -50 0 -34 -7 -51 -30 -77 -32 -37 -37
-56 -18 -75 20 -20 53 -13 83 18 23 24 37 30 72 30 32 0 45 5 53 19 13 25 13
27 -6 45 -8 9 -28 16 -44 16 -26 0 -29 4 -32 38 -3 33 -6 37 -33 40 -17 2 -34
0 -38 -4z"/>
<path d="M12552 4471 c-8 -5 -12 -21 -10 -37 l3 -29 115 0 c112 0 115 1 118
23 6 44 -13 52 -117 52 -53 0 -102 -4 -109 -9z"/>
<path d="M13042 4468 c-6 -6 -12 -20 -12 -29 0 -33 25 -40 130 -37 85 3 105 6
114 21 8 12 8 22 0 35 -9 14 -29 17 -115 20 -73 2 -108 -1 -117 -10z"/>
<path d="M13540 4466 c-6 -8 -10 -25 -8 -38 3 -22 7 -23 113 -26 95 -2 111 0
122 15 17 22 16 28 -3 47 -21 22 -206 23 -224 2z"/>
<path d="M14036 4464 c-19 -19 -20 -25 -3 -47 11 -15 27 -17 122 -15 106 3
110 4 113 26 6 44 -13 52 -119 52 -75 0 -101 -4 -113 -16z"/>
<path d="M14532 4468 c-7 -7 -12 -19 -12 -28 0 -33 22 -40 126 -40 115 0 136
10 116 55 -11 24 -15 25 -115 25 -67 0 -107 -4 -115 -12z"/>
<path d="M11787 4122 c-67 -68 -77 -88 -55 -110 26 -26 55 -12 121 57 68 70
77 87 55 109 -25 25 -54 11 -121 -56z"/>
<path d="M11455 3789 c-76 -73 -87 -96 -60 -119 25 -21 59 -3 124 65 66 68 71
87 34 112 -22 15 -26 12 -98 -58z"/>
<path d="M11112 3446 c-40 -41 -72 -79 -72 -84 0 -16 29 -42 47 -42 22 0 142
119 150 148 6 25 -16 52 -42 52 -6 0 -44 -33 -83 -74z"/>
<path d="M10771 3105 c-70 -72 -73 -76 -58 -98 25 -38 44 -32 117 39 70 67 84
96 58 122 -23 23 -45 11 -117 -63z"/>
<path d="M10437 2772 c-70 -71 -83 -103 -48 -122 11 -5 23 -10 26 -10 4 0 38
30 76 67 69 66 83 95 57 121 -23 23 -44 12 -111 -56z"/>
<path d="M10096 2431 c-52 -52 -67 -74 -64 -92 2 -18 10 -25 32 -27 24 -3 39
7 88 55 73 71 82 87 68 113 -19 36 -52 24 -124 -49z"/>
<path d="M30287 9843 c-13 -12 -8 -218 5 -231 18 -18 46 -14 58 7 14 28 13
204 -2 219 -13 13 -50 16 -61 5z"/>
<path d="M30287 9333 c-13 -12 -8 -218 5 -231 16 -16 33 -15 52 4 20 20 23
203 4 222 -13 13 -50 16 -61 5z"/>
<path d="M26400 9255 c0 -2 26 -42 58 -87 77 -112 92 -135 92 -148 0 -6 -36
-62 -80 -124 -44 -62 -80 -116 -80 -120 0 -3 20 -6 45 -6 l45 0 56 88 c31 48
60 91 64 95 4 5 36 -34 70 -87 l62 -96 50 0 50 0 -23 38 c-13 20 -44 66 -69
102 -90 128 -90 102 1 228 43 61 79 113 79 116 0 3 -20 6 -45 6 l-45 0 -56
-85 c-30 -47 -58 -85 -62 -85 -4 0 -32 38 -62 85 l-55 85 -47 0 c-27 0 -48 -2
-48 -5z"/>
<path d="M13 9063 c-9 -3 -13 -30 -13 -85 l0 -80 33 6 c183 33 296 41 577 41
272 0 310 -3 485 -29 963 -144 1751 -632 2191 -1358 59 -98 134 -241 134 -258
0 -7 -552 -10 -1710 -10 l-1710 0 0 -45 0 -45 1881 0 c1277 0 1887 3 1900 10
25 14 25 56 0 70 -11 5 -73 10 -139 10 l-120 0 -65 133 c-321 647 -935 1162
-1702 1424 -103 35 -355 103 -457 123 -32 6 -58 14 -58 16 0 3 5 14 11 25 8
16 7 25 -7 40 -15 16 -31 19 -115 19 -93 0 -98 -1 -116 -26 l-19 -26 -118 8
c-87 5 -121 11 -133 23 -12 12 -41 17 -111 20 -81 3 -98 0 -121 -16 -35 -27
-271 -42 -271 -18 0 8 -9 19 -19 25 -20 10 -185 13 -208 3z"/>
<path d="M1532 9054 c-27 -18 -28 -36 -4 -57 15 -13 39 -17 115 -17 93 0 97 1
114 26 16 26 16 27 -6 45 -31 25 -184 27 -219 3z"/>
<path d="M2038 9059 c-22 -12 -23 -42 -2 -63 20 -20 203 -23 222 -4 18 18 14
56 -7 68 -25 13 -191 13 -213 -1z"/>
<path d="M2548 9059 c-22 -12 -23 -42 -2 -63 12 -12 37 -16 105 -16 102 0 129
10 129 45 0 14 -8 29 -19 35 -25 13 -191 13 -213 -1z"/>
<path d="M3058 9059 c-22 -12 -23 -42 -2 -63 12 -12 37 -16 105 -16 102 0 129
10 129 45 0 14 -8 29 -19 35 -25 13 -191 13 -213 -1z"/>
<path d="M3568 9059 c-24 -13 -23 -56 1 -69 11 -5 60 -10 110 -10 68 0 93 4
105 16 22 21 20 51 -3 64 -25 13 -191 13 -213 -1z"/>
<path d="M25588 8569 c-22 -12 -23 -42 -2 -63 12 -12 37 -16 105 -16 102 0
129 10 129 45 0 14 -8 29 -19 35 -25 13 -191 13 -213 -1z"/>
<path d="M26098 8569 c-24 -13 -23 -56 1 -69 11 -5 59 -10 106 -10 98 0 125
10 125 45 0 14 -8 29 -19 35 -25 13 -191 13 -213 -1z"/>
<path d="M27112 8568 c-18 -18 -14 -56 7 -68 11 -5 60 -10 109 -10 73 0 92 3
105 18 21 23 21 36 1 56 -20 20 -203 23 -222 4z"/>
<path d="M27623 8568 c-22 -29 -23 -38 -3 -58 17 -17 33 -20 108 -20 115 0
161 29 116 74 -20 21 -206 23 -221 4z"/>
<path d="M28133 8573 c-16 -6 -17 -55 -1 -71 13 -13 173 -17 202 -6 30 11 40
43 20 65 -15 16 -31 19 -113 18 -53 0 -102 -3 -108 -6z"/>
<path d="M28636 8564 c-9 -8 -16 -22 -16 -29 0 -34 30 -45 121 -45 100 0 129
10 129 43 0 40 -18 47 -121 47 -75 0 -101 -4 -113 -16z"/>
<path d="M29146 8564 c-9 -8 -16 -22 -16 -29 0 -34 30 -45 121 -45 100 0 129
10 129 43 0 40 -18 47 -121 47 -75 0 -101 -4 -113 -16z"/>
<path d="M29658 8569 c-22 -12 -23 -42 -2 -63 12 -12 37 -16 105 -16 50 0 99
5 110 10 21 12 25 50 7 68 -15 15 -195 16 -220 1z"/>
<path d="M30672 8568 c-18 -18 -14 -56 7 -68 11 -5 60 -10 110 -10 91 0 121
11 121 45 0 35 -29 45 -129 45 -62 0 -101 -4 -109 -12z"/>
<path d="M31182 8568 c-7 -7 -12 -21 -12 -33 0 -38 19 -45 121 -45 100 0 129
10 129 45 0 35 -29 45 -129 45 -62 0 -101 -4 -109 -12z"/>
<path d="M31686 8561 c-19 -21 -13 -47 15 -61 10 -6 58 -10 107 -10 73 0 92 3
105 18 21 23 21 36 1 56 -12 12 -38 16 -113 16 -83 0 -101 -3 -115 -19z"/>
<path d="M32195 8560 c-17 -18 -17 -21 -1 -45 17 -25 19 -26 118 -23 89 3 102
5 114 23 12 18 11 24 -2 43 -14 20 -23 22 -113 22 -85 0 -100 -3 -116 -20z"/>
<path d="M32706 8564 c-46 -45 1 -74 119 -74 96 0 115 8 115 45 0 38 -19 45
-121 45 -75 0 -101 -4 -113 -16z"/>
<path d="M33218 8569 c-10 -5 -18 -18 -18 -29 0 -31 28 -50 76 -50 l44 0 0 45
0 45 -42 0 c-24 0 -51 -5 -60 -11z"/>
<path d="M21046 8230 c-67 -26 -79 -40 -67 -73 6 -15 12 -27 15 -27 2 0 28 11
58 25 61 28 94 31 143 11 47 -20 67 -55 67 -116 -1 -83 -32 -131 -179 -281
-104 -106 -133 -141 -133 -162 l0 -27 210 0 210 0 0 35 0 35 -140 0 c-77 0
-140 3 -140 6 0 4 44 53 99 109 121 126 163 201 163 293 0 33 -5 70 -12 83
-20 39 -63 80 -99 95 -47 20 -137 17 -195 -6z"/>
<path d="M22890 8202 c-57 -34 -65 -42 -63 -67 1 -15 4 -29 7 -32 2 -2 27 7
55 21 28 14 53 26 56 26 3 0 5 -129 5 -286 l0 -285 43 3 42 3 0 325 0 325 -40
3 c-31 2 -54 -6 -105 -36z"/>
<path d="M20352 8093 c-112 -247 -166 -491 -179 -818 -13 -349 47 -690 172
-963 l38 -82 58 0 59 0 -26 58 c-14 31 -37 86 -50 121 -188 490 -173 1201 36
1665 16 37 30 72 30 77 0 5 -24 9 -54 9 l-53 0 -31 -67z"/>
<path d="M23750 8154 c0 -3 9 -24 19 -47 134 -297 190 -606 178 -992 -11 -321
-57 -549 -164 -798 -18 -43 -33 -81 -33 -83 0 -2 24 -4 53 -4 l54 0 36 78
c115 247 165 480 174 809 11 388 -42 687 -169 956 l-41 87 -54 0 c-29 0 -53
-2 -53 -6z"/>
<path d="M18337 7893 c-4 -3 -7 -260 -7 -570 l0 -563 60 0 60 0 0 55 c0 30 3
55 6 55 4 0 24 -20 46 -44 102 -116 315 -115 440 2 164 153 170 478 12 637
-63 62 -136 88 -235 83 -91 -5 -150 -31 -208 -91 l-41 -42 0 243 0 242 -63 0
c-35 0 -67 -3 -70 -7z m424 -465 c150 -50 213 -265 130 -444 -41 -89 -111
-134 -205 -134 -84 1 -183 76 -205 157 -15 54 -13 230 3 276 42 116 167 183
277 145z"/>
<path d="M30291 7806 c-8 -9 -11 -51 -9 -122 3 -105 4 -109 26 -112 43 -6 52
13 52 115 0 52 -5 103 -10 114 -12 22 -43 25 -59 5z"/>
<path d="M4048 7734 c-4 -3 27 -56 69 -117 42 -61 76 -116 76 -122 0 -6 -35
-61 -78 -122 -43 -61 -77 -115 -76 -119 1 -8 59 -13 78 -6 7 2 38 44 69 93 31
49 59 89 63 89 3 0 31 -39 61 -86 30 -47 63 -90 72 -95 20 -11 84 -5 81 8 -1
5 -36 60 -78 122 -44 65 -74 119 -71 127 3 8 38 60 77 115 76 107 78 123 18
117 -30 -3 -40 -12 -90 -88 -31 -47 -60 -85 -65 -84 -5 1 -33 39 -64 85 -53
80 -57 84 -95 87 -23 2 -44 0 -47 -4z"/>
<path d="M22038 7333 l-3 -118 -112 -3 -113 -3 0 -29 0 -30 115 0 115 0 0
-120 0 -120 30 0 30 0 0 120 0 119 113 3 112 3 3 27 3 27 -113 3 -113 3 -3
118 -3 117 -29 0 -29 0 -3 -117z"/>
<path d="M30291 7296 c-8 -9 -11 -51 -9 -122 3 -105 4 -109 26 -112 44 -7 52
12 52 122 0 104 -7 126 -41 126 -9 0 -22 -6 -28 -14z"/>
<path d="M20830 7265 l0 -35 336 0 335 0 -3 33 -3 32 -332 3 -333 2 0 -35z"/>
<path d="M22640 7265 l0 -35 336 0 335 0 -3 33 -3 32 -332 3 -333 2 0 -35z"/>
<path d="M22759 6626 c-1 -190 -2 -352 -3 -358 -1 -8 14 -14 37 -16 35 -3 37
-2 37 27 0 36 10 39 36 10 31 -34 71 -50 129 -50 97 -2 177 55 211 148 16 47
18 163 3 214 -25 83 -110 148 -194 149 -47 0 -138 -40 -151 -66 -6 -13 -11 32
-14 131 l-5 150 -42 3 -43 3 -1 -345z m291 35 c72 -38 105 -179 64 -268 -37
-77 -130 -107 -201 -63 -49 29 -63 66 -63 163 0 97 20 139 80 169 45 23 77 23
120 -1z"/>
<path d="M21095 6743 c-32 -6 -105 -34 -105 -39 0 -5 20 -45 25 -52 1 -1 18 5
38 13 20 8 59 15 87 15 44 0 56 -5 81 -29 19 -19 29 -40 29 -59 0 -29 -1 -29
-69 -36 -86 -9 -167 -47 -198 -95 -26 -39 -31 -110 -10 -151 37 -74 155 -94
239 -41 46 29 47 30 50 8 2 -18 11 -23 41 -25 l39 -3 -4 193 c-3 181 -4 195
-26 230 -38 61 -127 91 -217 71z m158 -306 c-3 -67 -21 -99 -68 -121 -44 -21
-77 -20 -107 4 -32 25 -41 66 -22 106 22 46 88 74 164 71 l35 -2 -2 -58z"/>
<path d="M6725 6500 c-27 -11 -63 -30 -79 -43 -28 -23 -28 -23 -12 -61 9 -21
19 -36 23 -34 5 1 35 16 68 33 48 24 72 30 121 29 111 -1 167 -59 167 -174 -1
-107 -43 -171 -260 -392 -144 -146 -164 -170 -161 -195 l3 -28 280 0 280 0 0
45 0 45 -193 3 -194 2 141 145 c121 125 146 157 182 230 38 77 42 92 42 158 0
56 -5 85 -22 120 -27 56 -91 113 -140 127 -61 17 -190 11 -246 -10z"/>
<path d="M4335 6462 c-86 -45 -90 -48 -89 -80 3 -65 7 -67 81 -28 37 20 71 36
75 36 4 0 9 -170 10 -377 l3 -378 58 -3 57 -3 0 441 0 440 -52 0 c-43 -1 -70
-9 -143 -48z"/>
<path d="M0 6277 l0 -45 83 -7 c460 -37 972 -143 1302 -270 292 -112 469 -235
536 -371 28 -57 31 -71 27 -127 -7 -80 -33 -132 -106 -205 -248 -252 -867
-442 -1729 -533 l-113 -12 0 -43 c0 -41 2 -44 23 -40 12 3 58 8 102 11 44 4
165 18 269 31 700 90 1251 281 1499 518 l57 55 0 -2379 0 -2379 -58 55 c-287
278 -942 475 -1849 558 l-43 4 0 -44 c0 -37 3 -44 19 -44 49 0 326 -33 499
-60 634 -99 1117 -274 1324 -480 137 -138 144 -282 19 -422 l-43 -48 59 0 58
0 33 49 c19 27 41 68 50 92 16 41 17 245 20 2697 2 2921 7 2708 -60 2819 -98
164 -378 328 -759 447 -290 90 -738 174 -1069 201 -41 3 -92 8 -112 11 l-38 6
0 -45z"/>
<path d="M3679 6286 c-43 -15 -105 -61 -113 -83 -10 -25 -24 -3 -28 42 l-3 40
-50 0 c-34 0 -50 -4 -49 -12 1 -7 2 -155 3 -328 l1 -315 60 0 60 0 0 221 c0
206 1 224 21 259 29 51 92 90 146 90 60 0 94 -20 123 -72 24 -42 25 -49 28
-271 l3 -228 57 3 57 3 0 240 c0 226 -1 243 -22 287 -52 113 -177 166 -294
124z"/>
<path d="M6128 6291 c-37 -12 -114 -67 -122 -87 -9 -24 -19 -10 -25 39 l-6 42
-50 0 c-34 0 -50 -4 -49 -12 1 -7 2 -155 3 -328 l1 -315 60 0 60 0 0 217 c0
195 2 221 20 257 43 89 155 123 232 71 58 -40 68 -87 68 -337 l0 -208 61 0 61
0 -4 243 -3 243 -30 59 c-41 79 -101 118 -189 122 -33 1 -73 -2 -88 -6z"/>
<path d="M30284 6277 c-2 -7 -3 -60 -2 -117 3 -85 6 -105 21 -114 12 -8 22 -8
35 0 14 9 17 29 20 114 2 67 -1 107 -9 116 -15 18 -58 18 -65 1z"/>
<path d="M5120 5995 l0 -45 165 0 165 0 0 45 0 45 -165 0 -165 0 0 -45z"/>
<path d="M30298 5779 c-15 -9 -18 -26 -18 -117 0 -107 7 -132 36 -132 34 0 44
30 44 129 0 82 -3 101 -18 114 -21 20 -21 20 -44 6z"/>
<path d="M20504 5458 c-26 -46 -78 -135 -114 -198 -37 -63 -119 -205 -182
-315 -63 -110 -155 -270 -205 -355 -50 -85 -142 -245 -205 -355 -63 -110 -155
-270 -205 -355 -50 -85 -151 -261 -226 -390 -74 -129 -185 -323 -247 -430 -62
-107 -121 -208 -130 -225 -10 -16 -93 -160 -185 -320 -92 -159 -200 -346 -240
-415 -39 -69 -107 -186 -150 -260 -127 -219 -207 -358 -390 -675 -95 -165
-202 -351 -239 -413 -36 -62 -66 -122 -66 -132 0 -11 9 -24 19 -30 14 -7 732
-10 2250 -10 2189 0 2231 0 2231 -19 0 -11 -7 -72 -15 -138 -17 -139 -45 -395
-45 -411 0 -7 16 -12 40 -12 33 0 40 4 45 23 2 12 30 252 61 532 30 281 59
526 63 545 7 35 7 35 59 33 29 -1 94 -16 145 -33 189 -63 323 -172 376 -306
16 -42 21 -84 25 -220 3 -93 9 -249 12 -347 l6 -178 33 -25 c30 -22 41 -25
111 -22 l78 3 -61 37 c-33 21 -65 43 -70 50 -6 7 -13 116 -17 251 l-7 237 107
0 c106 0 107 0 183 -42 42 -22 99 -53 126 -68 28 -15 154 -84 280 -152 127
-69 257 -140 290 -158 33 -18 74 -41 90 -50 17 -10 69 -39 117 -64 l87 -47 89
3 89 3 -246 134 c-135 74 -415 227 -621 339 -458 249 -470 256 -546 298 -53
30 -64 41 -90 95 -38 82 -156 192 -263 248 -156 81 -332 125 -404 102 -30 -10
-41 -9 -81 11 -25 12 -46 24 -46 27 0 13 158 309 216 406 13 22 25 44 27 49 2
5 41 -11 88 -36 134 -72 650 -353 814 -443 159 -88 559 -306 660 -360 33 -18
80 -43 105 -57 57 -32 609 -333 670 -366 25 -13 68 -36 95 -52 28 -15 79 -43
115 -62 36 -20 85 -47 110 -60 25 -14 81 -45 125 -68 92 -50 256 -139 333
-182 49 -27 59 -29 143 -26 l91 3 -58 31 c-33 18 -230 125 -439 239 -209 114
-531 290 -715 390 -184 100 -364 199 -400 218 -61 34 -77 51 -243 265 l-178
230 -77 6 c-42 3 -160 8 -262 12 -170 6 -189 9 -235 32 -43 21 -401 215 -535
290 -25 13 -87 47 -138 75 l-93 49 22 24 c35 37 98 56 180 55 41 -1 376 -1
745 0 461 0 690 -3 733 -11 97 -17 240 -67 301 -104 30 -19 116 -66 190 -106
74 -40 162 -87 195 -105 33 -18 155 -83 270 -145 116 -62 237 -127 270 -145
64 -34 159 -85 290 -155 98 -52 144 -87 178 -137 14 -21 114 -256 221 -523
l194 -485 46 -3 c25 -2 46 -1 46 2 0 2 -16 41 -35 86 -19 45 -35 86 -35 91 0
5 1414 9 3535 9 l3535 0 0 45 0 45 -3556 2 -3556 3 -34 84 c-19 47 -34 88 -34
93 0 4 1616 8 3590 8 l3590 0 0 45 0 45 -3612 2 -3612 3 -91 225 c-50 124
-105 246 -123 272 -46 67 -97 105 -262 193 -80 43 -197 106 -260 140 -63 34
-155 84 -205 110 -49 26 -103 55 -120 65 -16 9 -84 45 -150 80 -210 109 -288
152 -373 202 -102 61 -173 90 -299 124 l-98 25 -727 2 c-632 2 -729 4 -742 17
-8 8 -46 69 -84 135 -81 142 -535 928 -635 1100 -38 66 -129 224 -202 350 -73
127 -165 286 -205 355 -40 69 -141 244 -225 390 -137 238 -365 633 -602 1043
-78 133 -88 147 -113 147 -25 0 -34 -11 -76 -82z m36 -1526 l0 -1399 -522
-350 c-1052 -704 -2088 -1394 -2103 -1399 -14 -6 37 87 318 571 60 105 142
246 182 315 209 365 531 922 560 970 18 30 75 129 128 220 158 276 390 679
523 908 70 119 138 237 152 262 14 25 80 140 147 255 67 116 183 316 257 445
367 636 345 600 353 600 3 0 5 -629 5 -1398z m161 1276 c39 -68 97 -168 129
-223 32 -55 89 -154 128 -220 38 -66 205 -356 372 -645 167 -289 342 -592 390
-675 96 -166 347 -600 378 -655 11 -19 117 -203 236 -409 119 -206 215 -375
214 -376 -2 -1 -25 -10 -53 -20 -34 -12 -67 -35 -101 -71 l-51 -53 -229 65
c-274 77 -446 125 -694 194 -324 90 -301 79 -562 254 l-238 158 0 1399 c0 769
2 1399 5 1399 2 0 36 -55 76 -122z m158 -2937 c263 -176 276 -186 632 -502
200 -177 422 -374 493 -438 83 -75 157 -132 210 -161 l81 -46 0 -44 c-1 -47
-32 -348 -40 -388 l-5 -22 -2157 0 c-1455 0 -2154 3 -2147 10 22 22 2640 1769
2651 1769 7 1 134 -80 282 -178z m769 -297 c92 -25 219 -60 282 -78 63 -19
195 -55 292 -82 98 -27 178 -51 178 -54 0 -3 -24 -49 -53 -101 -28 -52 -81
-150 -117 -217 -36 -67 -69 -122 -75 -122 -9 0 -239 201 -622 543 l-101 90 16
34 c9 18 20 33 24 33 5 0 84 -21 176 -46z m2114 -692 c28 -29 188 -236 188
-245 0 -5 -19 2 -42 16 -24 13 -136 75 -250 136 -115 62 -208 115 -208 118 0
3 66 3 148 -1 118 -6 150 -11 164 -24z m-657 -602 c3 -5 -1 -10 -9 -10 -9 0
-16 5 -16 10 0 6 4 10 9 10 6 0 13 -4 16 -10z"/>
<path d="M23763 5339 c-18 -18 -19 -2459 -1 -2477 9 -9 435 -12 1855 -12 1809
0 1842 0 1853 19 5 11 7 26 4 34 -3 8 -222 159 -487 335 -265 175 -867 575
-1337 887 -470 313 -1075 714 -1345 893 -269 179 -499 327 -510 329 -11 3 -26
-1 -32 -8z m519 -407 c238 -159 600 -399 803 -534 1168 -773 2195 -1458 2195
-1463 0 -3 -133 -5 -295 -5 l-295 0 0 65 c0 59 -2 67 -22 74 -47 17 -63 0 -66
-73 l-3 -66 -249 0 -250 0 0 65 c0 59 -2 67 -22 74 -46 17 -57 4 -60 -68 l-3
-66 -250 0 -250 0 -3 62 c-2 50 -7 65 -22 73 -14 8 -26 8 -40 0 -15 -8 -20
-23 -22 -73 l-3 -62 -244 -3 c-189 -2 -246 1 -253 10 -4 7 -8 38 -8 69 0 62
-13 74 -58 58 -20 -7 -22 -15 -22 -74 l0 -65 -250 0 -250 0 0 65 c0 59 -2 67
-22 74 -49 18 -68 -4 -68 -82 l0 -57 -207 2 -208 3 -3 1143 c-1 701 2 1142 7
1142 5 0 205 -130 443 -288z"/>
<path d="M24228 4549 c-17 -9 -18 -51 -18 -653 0 -578 2 -644 16 -650 9 -3
440 -6 959 -6 1008 0 973 -2 963 47 -4 21 -29 39 -613 426 -259 172 -652 432
-873 580 -222 147 -406 267 -410 267 -4 0 -15 -5 -24 -11z m685 -525 c1006
-668 1037 -688 1029 -696 -5 -5 -377 -7 -828 -6 l-819 3 -3 553 c-1 303 0 552
3 552 3 0 281 -183 618 -406z"/>
<path d="M3218 5265 c-8 -19 -8 -28 2 -40 11 -13 232 -15 2064 -13 l2051 3 3
23 c8 56 151 52 -2064 52 l-2044 0 -12 -25z"/>
<path d="M7655 4976 c-37 -16 -70 -52 -84 -89 -15 -38 -15 -828 -1 -879 7 -25
26 -51 56 -75 l45 -38 -3 -60 -3 -60 -70 -18 c-128 -33 -210 -81 -305 -176
-96 -96 -147 -184 -176 -306 -22 -91 -22 -231 -1 -315 22 -82 77 -193 127
-253 22 -27 36 -54 34 -64 -5 -22 -61 -249 -203 -823 -317 -1282 -373 -1511
-387 -1573 -9 -37 -20 -67 -24 -67 -26 0 -268 -35 -420 -60 -162 -27 -530
-106 -539 -116 -2 -2 81 -4 185 -4 144 0 213 5 289 19 156 30 456 73 462 67 3
-3 1 -23 -5 -46 l-10 -40 44 0 c24 0 44 2 44 5 0 2 31 129 69 282 39 153 104
417 146 588 170 690 396 1604 416 1677 l9 37 94 -49 c51 -27 110 -52 131 -56
20 -3 39 -12 42 -20 2 -7 -32 -140 -77 -296 -161 -555 -201 -694 -231 -798
-17 -58 -46 -158 -65 -223 -19 -64 -49 -170 -68 -235 -19 -64 -83 -283 -141
-487 -59 -203 -111 -382 -116 -397 -7 -28 -7 -28 36 -28 l44 0 19 62 18 63 50
7 c68 9 685 26 814 22 318 -10 445 -15 500 -21 l60 -6 19 -61 c18 -61 19 -61
60 -64 26 -2 41 1 41 8 0 6 -43 161 -96 343 -53 183 -111 384 -129 447 -18 63
-63 216 -99 340 -36 124 -101 349 -144 500 -44 151 -114 395 -157 542 -43 147
-75 273 -72 281 3 8 24 18 46 22 22 4 80 27 128 51 47 24 90 41 93 37 4 -5 41
-147 83 -318 42 -170 131 -530 197 -800 67 -269 171 -690 231 -935 60 -245
114 -462 120 -482 9 -37 11 -38 54 -38 l44 0 -10 32 c-16 57 -14 59 49 52 31
-3 162 -24 291 -45 222 -37 243 -39 420 -37 l186 3 -185 42 c-208 47 -478 95
-667 118 -70 9 -128 17 -130 18 -2 2 -183 731 -312 1259 -39 156 -121 491
-185 746 l-114 463 54 72 c148 198 175 449 70 672 -50 105 -111 184 -190 243
-68 51 -182 108 -237 117 l-39 7 0 71 c0 69 1 73 30 89 16 9 39 32 50 50 19
32 20 49 20 473 0 419 -1 442 -20 472 -32 53 -85 73 -187 73 -51 -1 -101 -6
-118 -14z m225 -96 c19 -19 20 -33 20 -433 0 -357 -2 -416 -16 -435 -14 -20
-23 -22 -106 -22 -71 0 -96 4 -110 17 -17 15 -18 42 -18 436 0 377 2 422 17
439 13 15 32 18 105 18 75 0 91 -3 108 -20z m-90 -1040 c0 -53 -2 -60 -20 -60
-17 0 -20 7 -20 53 0 56 4 67 27 67 9 0 13 -17 13 -60z m74 -160 c156 -25 316
-146 392 -295 50 -97 68 -166 68 -265 0 -362 -337 -633 -696 -559 -201 41
-381 220 -434 429 -21 84 -14 230 15 313 62 178 227 329 406 373 62 15 171 17
249 4z m-75 -1237 c5 -10 36 -112 69 -228 60 -210 237 -824 352 -1220 174
-598 221 -767 217 -771 -2 -3 -110 0 -238 6 -299 13 -583 13 -878 -1 -128 -5
-236 -8 -238 -5 -6 6 -1 27 62 241 25 88 76 261 111 385 36 124 87 302 115
395 135 464 349 1207 349 1211 0 2 16 4 35 4 22 0 37 -6 44 -17z"/>
<path d="M7655 3563 c-204 -43 -354 -228 -356 -439 -4 -400 475 -608 765 -334
250 237 153 659 -175 761 -57 18 -179 24 -234 12z m246 -107 c79 -37 133 -88
176 -164 37 -66 38 -69 38 -172 0 -100 -1 -108 -34 -168 -41 -75 -103 -135
-179 -170 -49 -23 -70 -27 -152 -27 -84 0 -102 3 -152 28 -77 38 -144 107
-182 187 -27 57 -31 76 -31 150 0 74 4 93 31 150 49 104 124 168 239 207 62
20 180 11 246 -21z"/>
<path d="M5530 4899 c-70 -9 -160 -45 -160 -64 0 -18 21 -75 28 -75 3 0 26 10
51 22 65 32 165 36 208 9 45 -28 67 -67 66 -112 -4 -87 -71 -139 -188 -149
l-70 -5 -3 -41 -3 -41 78 -5 c122 -7 190 -52 213 -139 15 -53 -3 -114 -44
-155 -60 -60 -195 -68 -301 -18 -40 19 -47 15 -64 -35 -9 -29 -8 -36 7 -47 32
-24 128 -44 208 -44 138 0 223 37 281 123 81 121 43 274 -84 337 -29 14 -52
27 -52 30 0 3 21 19 47 35 112 72 130 219 38 311 -58 59 -140 79 -256 63z"/>
<path d="M4833 4655 c-29 -15 -64 -40 -78 -57 -27 -32 -32 -28 -37 32 -3 35
-3 35 -53 35 -45 0 -50 -2 -49 -22 0 -13 1 -160 2 -328 l2 -305 60 0 60 0 0
218 c0 192 3 222 19 259 53 116 222 127 277 17 17 -34 19 -66 22 -266 l3 -228
61 0 60 0 -3 243 -4 243 -30 59 c-43 85 -92 117 -187 122 -64 4 -79 1 -125
-22z"/>
<path d="M28906 4544 c-14 -14 -16 -163 -16 -1490 0 -998 3 -1482 10 -1495 11
-19 38 -19 1504 -19 1353 0 1494 1 1500 16 3 9 6 683 6 1499 0 1457 0 1484
-19 1495 -13 7 -497 10 -1495 10 -1327 0 -1476 -2 -1490 -16z m1454 -764 l0
-690 -690 0 -690 0 0 690 0 690 690 0 690 0 0 -690z m1468 3 l-3 -688 -684 -3
c-404 -1 -687 2 -690 7 -3 5 -5 316 -3 690 l2 681 690 0 690 0 -2 -687z
m-1470 -1470 l-3 -688 -687 -3 -688 -2 0 690 0 690 690 0 690 0 -2 -687z
m1470 0 l-3 -688 -687 -3 -688 -2 0 690 0 690 690 0 690 0 -2 -687z"/>
<path d="M29610 4000 l0 -159 -152 -3 -153 -3 -3 -37 -3 -38 155 0 156 0 2
-162 3 -163 42 -3 42 -3 3 163 3 163 153 3 152 3 0 39 0 40 -155 0 -155 0 0
160 0 160 -45 0 -45 0 0 -160z"/>
<path d="M30840 3795 l0 -45 305 0 305 0 0 45 0 45 -305 0 -305 0 0 -45z"/>
<path d="M29387 2624 c-3 -4 24 -50 60 -103 37 -53 85 -121 106 -151 l38 -56
-111 -160 -112 -159 57 -3 c31 -2 62 2 69 7 7 6 44 60 82 121 68 108 86 126
98 94 3 -9 36 -63 74 -120 l67 -104 63 0 c34 0 62 3 62 6 0 3 -48 76 -106 162
l-107 155 19 31 c10 17 55 84 101 148 46 64 83 122 83 127 0 7 -23 11 -54 11
-53 0 -55 -1 -88 -47 -19 -27 -54 -81 -78 -120 -25 -40 -47 -73 -50 -73 -3 0
-13 15 -23 33 -10 17 -44 70 -75 117 l-57 85 -55 3 c-31 2 -59 0 -63 -4z"/>
<path d="M31090 2647 c-34 -17 -62 -74 -54 -112 13 -62 76 -101 136 -85 45 13
67 38 75 84 14 90 -74 155 -157 113z"/>
<path d="M30840 2310 l0 -40 305 0 305 0 0 40 0 40 -305 0 -305 0 0 -40z"/>
<path d="M31083 2150 c-21 -13 -36 -32 -44 -59 -10 -34 -9 -44 7 -73 28 -47
84 -73 128 -58 44 14 65 39 73 84 15 96 -80 158 -164 106z"/>
<path d="M3450 3329 c-57 -16 -113 -61 -137 -109 l-23 -44 0 -1208 0 -1208 54
-132 c242 -592 229 -563 258 -566 36 -4 17 -43 242 511 l76 187 -2 1224 -3
1224 -31 38 c-17 21 -53 50 -80 64 -44 22 -62 25 -184 27 -74 1 -151 -3 -170
-8z m275 -80 c57 -15 105 -54 105 -85 l0 -24 -225 0 c-222 0 -225 0 -225 21 0
29 52 75 97 87 52 14 199 14 248 1z m105 -264 l0 -75 -224 0 c-251 0 -235 -5
-235 75 0 80 -16 75 235 75 l224 0 0 -75z m-370 -1170 l0 -1005 -39 0 c-22 0
-41 5 -43 12 -3 10 -2 1937 1 1986 1 7 16 12 41 12 l40 0 0 -1005z m205 0 l0
-1000 -57 -3 -58 -3 0 1006 0 1006 58 -3 57 -3 0 -1000z m165 0 l0 -1005 -40
0 -40 0 0 1005 0 1005 40 0 40 0 0 -1005z m-20 -1100 c0 -10 -134 -330 -143
-342 -11 -14 -95 -17 -115 -4 -10 6 -152 331 -152 347 0 2 92 4 205 4 113 0
205 -2 205 -5z m-180 -439 c0 -3 -5 -17 -11 -33 l-11 -28 -13 25 c-7 14 -11
28 -9 32 5 8 44 11 44 4z"/>
<path d="M2592 2338 c-8 -8 -12 -48 -12 -114 0 -110 8 -129 52 -122 22 3 23 7
26 112 3 111 -4 136 -37 136 -9 0 -22 -5 -29 -12z"/>
<path d="M33233 1816 c-46 -133 -83 -246 -83 -249 0 -4 20 -7 45 -7 l44 0 27
88 c14 48 32 97 40 110 11 17 14 54 12 161 l-3 139 -82 -242z"/>
<path d="M2592 1828 c-8 -8 -12 -48 -12 -114 0 -110 8 -129 52 -122 22 3 23 7
26 112 3 111 -4 136 -37 136 -9 0 -22 -5 -29 -12z"/>
<path d="M2592 1318 c-8 -8 -12 -46 -12 -114 0 -110 8 -129 52 -122 23 3 23 5
23 123 l0 120 -25 3 c-14 2 -31 -3 -38 -10z"/>
<path d="M12099 843 c-84 -122 -124 -284 -116 -472 5 -133 23 -210 74 -318 25
-52 26 -53 69 -53 l43 0 -33 73 c-107 232 -95 518 29 744 19 35 35 66 35 68 0
3 -16 5 -35 5 -29 0 -38 -6 -66 -47z"/>
<path d="M13760 886 c0 -2 20 -42 45 -88 55 -103 84 -211 91 -338 8 -121 -15
-267 -57 -364 -17 -39 -33 -77 -36 -83 -4 -9 6 -13 34 -13 38 0 40 2 71 64 48
97 64 167 69 312 6 160 -11 264 -63 374 -52 110 -77 140 -120 140 -18 0 -34
-2 -34 -4z"/>
<path d="M13321 841 c-44 -12 -111 -42 -111 -51 0 -9 21 -70 24 -70 1 0 20 8
42 19 90 43 172 35 219 -20 69 -83 -6 -184 -147 -196 l-58 -6 0 -33 c0 -33 1
-34 43 -34 162 0 253 -112 190 -233 -32 -63 -153 -85 -260 -47 -32 11 -58 20
-59 20 -9 0 -24 -73 -18 -80 5 -4 33 -15 61 -25 70 -22 195 -22 253 1 185 71
204 312 30 384 -16 7 -30 15 -29 19 0 3 19 20 42 36 58 42 79 86 75 156 -5 68
-33 111 -91 141 -46 23 -150 33 -206 19z"/>
<path d="M2591 807 c-8 -10 -11 -48 -9 -117 3 -85 6 -105 21 -114 12 -8 22 -8
35 0 14 10 17 27 17 125 l0 114 -26 3 c-14 2 -31 -3 -38 -11z"/>
<path d="M12262 632 c2 -4 43 -65 91 -135 49 -70 87 -133 84 -140 -3 -7 -46
-70 -96 -142 l-92 -130 47 -3 c26 -2 52 -1 59 1 6 3 40 51 75 106 35 56 66
101 70 101 4 0 37 -47 74 -105 l68 -105 55 0 c46 0 54 3 49 16 -3 8 -44 71
-91 139 -47 67 -85 128 -85 135 0 6 37 64 83 128 46 64 86 123 91 130 5 9 -6
12 -48 12 l-54 0 -64 -100 c-35 -55 -66 -100 -70 -100 -3 0 -36 45 -72 100
l-66 100 -56 0 c-30 0 -54 -3 -52 -8z"/>
<path d="M12804 416 c-3 -8 -4 -23 -2 -33 3 -16 17 -18 146 -21 l142 -3 0 36
0 35 -140 0 c-113 0 -142 -3 -146 -14z"/>
<path d="M2592 298 c-8 -8 -12 -46 -12 -115 0 -100 1 -104 25 -115 19 -8 28
-8 40 2 13 11 15 33 13 124 -3 110 -3 111 -28 114 -14 2 -31 -3 -38 -10z"/>
</g>
</svg>
